<svg height="19.813" viewBox="0 0 19.13 19.813" width="19.13" xmlns="http://www.w3.org/2000/svg"><path d="m1120.15 59.921a13.42 13.42 0 0 1 -9.03-3.393l-.31-.278.31-.972a9.767 9.767 0 0 1 1.57-3.3 2.54 2.54 0 0 1 2.04-.979 2.494 2.494 0 0 1 1.1.249 10.1 10.1 0 0 0 8.64 0 2.594 2.594 0 0 1 3.14.73 9.761 9.761 0 0 1 1.57 3.3v.006l.31.968-.3.278a13.464 13.464 0 0 1 -9.04 3.391zm-7.86-4.073a12.49 12.49 0 0 0 15.72 0l-.07-.239a8.8 8.8 0 0 0 -1.36-2.872 1.276 1.276 0 0 0 -1.01-.452 1.228 1.228 0 0 0 -.53.118 11.412 11.412 0 0 1 -9.78 0 1.2 1.2 0 0 0 -.53-.118 1.255 1.255 0 0 0 -1 .452 8.616 8.616 0 0 0 -1.37 2.872l-.01.042zm7.86-4.9a5.213 5.213 0 1 1 5.2-5.213 5.211 5.211 0 0 1 -5.2 5.211zm0-9.137a3.923 3.923 0 1 0 3.92 3.924 3.927 3.927 0 0 0 -3.92-3.926z" fill="#2c2c2c" fill-rule="evenodd" stroke="#212425" stroke-width=".4" transform="translate(-1110.59 -40.313)"/></svg>