<svg height="30" viewBox="0 0 56.969 30" width="56.969" xmlns="http://www.w3.org/2000/svg"><path d="m923.983 1965.49v-.78h-.492c-5.894 1.84-10.118-1.17-10.118-5.34 0-3.59 3.144-6.21 6.484-6.89l-1.474-3.5c-14.146 1.17-21.513 7.19-21.513 16.02 0 7.86 5.5 13.98 13.458 13.98 8.252 0 13.655-5.83 13.655-13.49zm-29.864 0v-.78h-.491c-5.894 1.84-10.118-1.17-10.118-5.34 0-3.59 3.144-6.21 6.484-6.89l-1.474-3.5c-14.146 1.17-21.513 7.19-21.513 16.02 0 7.86 5.5 13.98 13.458 13.98 8.251 0 13.654-5.83 13.654-13.49z" fill="#175a75" fill-rule="evenodd" transform="translate(-867 -1948.97)"/></svg>